<?xml version="1.0"?><svg xmlns="http://www.w3.org/2000/svg"  viewBox="0 0 50 50" width="150px" height="150px">    <path d="M 23.998047 3.0175781 C 23.702297 3.0175781 23.40825 3.1355469 23.21875 3.3730469 L 19.722656 7.7421875 L 14.445312 5.1035156 C 14.185313 4.9735156 13.883234 4.9622187 13.615234 5.0742188 C 13.347234 5.1852187 13.142781 5.4076406 13.050781 5.6816406 L 11.320312 10.871094 L 6.1621094 10.011719 C 5.8421094 9.9577187 5.5190156 10.063016 5.2910156 10.291016 C 5.0620156 10.520016 4.9577187 10.843109 5.0117188 11.162109 L 5.9003906 16.490234 L 1.4824219 18.390625 C 1.0084219 18.674625 0.856625 19.289672 1.140625 19.763672 L 3.7382812 23.84375 L 0.2890625 26.792969 C -0.1019375 27.183969 -0.1019375 27.814078 0.2890625 28.205078 L 3.7792969 31.195312 L 2.1015625 34.550781 C 1.9465625 34.860781 1.9644844 35.228438 2.1464844 35.523438 C 2.3324844 35.819438 2.653 36 3 36 L 8.2382812 36 L 13 36 C 24.787 36 28.416547 29.477687 28.935547 26.554688 C 28.514547 25.853687 28 24.657 28 23 C 28 20.439 29.188734 18.999141 29.552734 18.619141 C 29.933734 18.221141 30.463719 18.028 31.011719 18 C 31.275719 18.002 33.495219 18.076 35.074219 20 L 36 20 C 39.879 20 41.568047 20.921078 43.373047 22.580078 C 43.383047 22.588078 43.395297 22.593563 43.404297 22.601562 L 45.857422 18.513672 C 46.024422 18.234672 46.045062 17.892703 45.914062 17.595703 C 45.782063 17.298703 45.514313 17.083531 45.195312 17.019531 L 41.144531 16.208984 L 41.986328 11.164062 C 42.039328 10.845062 41.935031 10.521969 41.707031 10.292969 C 41.479031 10.064969 41.157938 9.9596719 40.835938 10.013672 L 35.820312 10.847656 L 34.986328 5.8339844 C 34.934328 5.5209844 34.736125 5.2514219 34.453125 5.1074219 C 34.169125 4.9624219 33.835734 4.9605156 33.552734 5.1035156 L 28.275391 7.7421875 L 24.779297 3.3730469 C 24.589797 3.1355469 24.293797 3.0175781 23.998047 3.0175781 z M 30.998047 20 C 30.958047 20.041 30 21.023 30 23 C 30 24.417 30.496969 25.326188 30.792969 25.742188 L 31.011719 26.052734 L 30.970703 26.427734 C 30.631703 29.645734 26.74 38 13 38 L 8.2382812 38 C 8.7282813 39.772 10.034781 44.937187 10.050781 44.992188 C 10.279781 46.136187 11.288 47 12.5 47 C 13.591 47 14.508609 46.297266 14.849609 45.322266 C 14.857609 45.308266 16.048828 42.318359 16.048828 42.318359 C 16.977828 42.641359 19.558 43 22 43 C 25.035 43 28.502625 42.452484 29.640625 42.146484 L 32.458984 45.9375 C 32.911984 46.5785 33.655 47 34.5 47 C 35.881 47 37 45.881 37 44.5 L 37 40.78125 C 47.64 37.95325 50 30.923 50 28 L 50 27 C 50 26.448 49.552 26 49 26 C 48.448 26 48 26.448 48 27 L 47 27 C 45 27 44.455 26.456 43 25 C 41.003 23.002 40 22 36 22 L 34.039062 22 L 33.742188 21.556641 C 32.718187 20.030641 31.067047 20 30.998047 20 z M 40 28 C 40.552 28 41 28.448 41 29 C 41 29.552 40.552 30 40 30 C 39.448 30 39 29.552 39 29 C 39 28.448 39.448 28 40 28 z"/></svg>