<svg xmlns="http://www.w3.org/2000/svg" xmlns:xlink="http://www.w3.org/1999/xlink" viewBox="0,0,256,256" width="50px" height="50px" fill-rule="nonzero"><g fill="#94d82d" fill-rule="nonzero" stroke="none" stroke-width="1" stroke-linecap="butt" stroke-linejoin="miter" stroke-miterlimit="10" stroke-dasharray="" stroke-dashoffset="0" font-family="none" font-weight="none" font-size="none" text-anchor="none" style="mix-blend-mode: normal"><g transform="scale(5.12,5.12)"><path d="M23.99805,3.01758c-0.29575,0 -0.5898,0.11797 -0.7793,0.35547l-3.49609,4.36914l-5.27734,-2.63867c-0.26,-0.13 -0.56208,-0.1413 -0.83008,-0.0293c-0.268,0.111 -0.47245,0.33342 -0.56445,0.60742l-1.73047,5.18945l-5.1582,-0.85937c-0.32,-0.054 -0.64309,0.0513 -0.87109,0.2793c-0.229,0.229 -0.3333,0.55209 -0.2793,0.87109l0.88867,5.32813l-4.41797,1.90039c-0.474,0.284 -0.6258,0.89905 -0.3418,1.37305l2.59766,4.08008l-3.44922,2.94922c-0.391,0.391 -0.391,1.02111 0,1.41211l3.49023,2.99023l-1.67773,3.35547c-0.155,0.31 -0.13708,0.67766 0.04492,0.97266c0.186,0.296 0.50652,0.47656 0.85352,0.47656h5.23828h4.76172c11.787,0 15.41655,-6.52231 15.93555,-9.44531c-0.421,-0.701 -0.93555,-1.89769 -0.93555,-3.55469c0,-2.561 1.18873,-4.00086 1.55273,-4.38086c0.381,-0.398 0.91099,-0.59114 1.45898,-0.61914c0.264,0.002 2.4835,0.076 4.0625,2h0.92578c3.879,0 5.56805,0.92108 7.37305,2.58008c0.01,0.008 0.02225,0.01348 0.03125,0.02148l2.45313,-4.08789c0.167,-0.279 0.18764,-0.62097 0.05664,-0.91797c-0.132,-0.297 -0.39975,-0.51217 -0.71875,-0.57617l-4.05078,-0.81055l0.8418,-5.04492c0.053,-0.319 -0.0513,-0.64209 -0.2793,-0.87109c-0.228,-0.228 -0.54909,-0.3333 -0.87109,-0.2793l-5.01563,0.83398l-0.83398,-5.01367c-0.052,-0.313 -0.2502,-0.58256 -0.5332,-0.72656c-0.284,-0.145 -0.61739,-0.14691 -0.90039,-0.00391l-5.27734,2.63867l-3.49609,-4.36914c-0.1895,-0.2375 -0.4855,-0.35547 -0.78125,-0.35547zM30.99805,20c-0.04,0.041 -0.99805,1.023 -0.99805,3c0,1.417 0.49697,2.32619 0.79297,2.74219l0.21875,0.31055l-0.04102,0.375c-0.339,3.218 -4.2307,11.57227 -17.9707,11.57227h-4.76172c0.49,1.772 1.7965,6.93719 1.8125,6.99219c0.229,1.144 1.23722,2.00781 2.44922,2.00781c1.091,0 2.00861,-0.70273 2.34961,-1.67773c0.008,-0.014 1.19922,-3.00391 1.19922,-3.00391c0.929,0.323 3.50917,0.68164 5.95117,0.68164c3.035,0 6.50262,-0.54752 7.64063,-0.85352l2.81836,3.79102c0.453,0.641 1.19602,1.0625 2.04102,1.0625c1.381,0 2.5,-1.119 2.5,-2.5v-3.71875c10.64,-2.828 13,-9.85825 13,-12.78125v-1c0,-0.552 -0.448,-1 -1,-1c-0.552,0 -1,0.448 -1,1h-1c-2,0 -2.545,-0.544 -4,-2c-1.997,-1.998 -3,-3 -7,-3h-1.96094l-0.29687,-0.44336c-1.024,-1.526 -2.67514,-1.55664 -2.74414,-1.55664zM40,28c0.552,0 1,0.448 1,1c0,0.552 -0.448,1 -1,1c-0.552,0 -1,-0.448 -1,-1c0,-0.552 0.448,-1 1,-1z"></path></g></g></svg>