<svg xmlns="http://www.w3.org/2000/svg"  viewBox="0 0 28 28" width="200px" height="200px"><path fill="#deff8f" d="m21.1 13.65c0 4.971-2.904 8.063-7.875 8.063s-8.902-5.364-8.902-10.335 3.931-7.665 8.902-7.665 7.875 4.966 7.875 9.937z"/><path d="m11.5 21c-5.238 0-9.5-4.262-9.5-9.5s4.262-9.5 9.5-9.5 9.5 4.262 9.5 9.5-4.262 9.5-9.5 9.5zm0-18c-4.687 0-8.5 3.813-8.5 8.5s3.813 8.5 8.5 8.5 8.5-3.813 8.5-8.5-3.813-8.5-8.5-8.5z"/><path d="m25.5 26c-.128 0-.256-.049-.354-.146l-7.636-7.636c-.195-.195-.195-.512 0-.707s.512-.195.707 0l7.636 7.636c.195.195.195.512 0 .707-.097.097-.225.146-.353.146z"/></svg>